# File produced by Open Asset Import Library (http://www.assimp.sf.net)
# (assimp v5.0.639693989)

mtllib 9qp6qsevdpky.mtl

# 12 vertex positions
v  0.030942488 -0.069799952 0.0087602185
v  0.06782005 -0.069889851 0.049883969
v  -0.050787378 -0.055024087 0.083312295
v  0.080692232 -0.077624805 -0.061584089
v  -0.031153249 -0.098324135 -0.0055451375
v  -0.0025768911 -0.073374704 -0.096648753
v  0.11620455 -0.0066259541 -0.021081556
v  0.035328921 0.033291742 0.089618221
v  -0.11515581 0.020933015 0.04730076
v  -0.077926949 0.036151119 -0.055676408
v  0.079892375 -0.028564328 -0.11608986
v  0.010404658 0.060354955 0.0034240605

# 28 UV coordinates
vt 0.60265583 0.77227378 0
vt 0.49187154 0.85326511 0
vt 0.76531118 0.99999994 0
vt 0.51577079 0.57372725 0
vt 0.76531124 0.75672507 0
vt 0.73712713 0.53244662 0
vt 0.76531136 0.55452108 0
vt 0.76896489 0.8304652 0
vt 0.96487015 0.72286379 0
vt 0.023267269 0.69146055 0
vt 0 0.95136309 0
vt 0.23187846 0.92045087 0
vt 0.49187165 0.24181598 0
vt 0.59828955 0.46299112 0
vt 0.84865046 0.39710158 0
vt 0.5222249 0 0
vt 0.84865046 0.12316287 0
vt 0.53922558 0.46299112 0
vt 0.96487015 0.46299112 0
vt 0.23187846 0.52717859 0
vt 0.16479796 0.035436392 0
vt 0 0.3145476 0
vt 0.32362229 0 0
vt 0.88425124 0.9674558 0
vt 0.40032053 0.52717847 0
vt 0.4918716 0.1961987 0
vt 0.25307745 0.40616298 0
vt 0.016891778 0.52717853 0

# 12 vertex normals
vn 0.067629017 -0.99133277 0.11255226
vn 0.49635303 -0.68175298 0.53736991
vn -0.37058625 -0.53367716 0.76015502
vn 0.52504045 -0.82485425 -0.20947905
vn -0.29319131 -0.95571762 -0.024567399
vn -0.31934568 -0.62678915 -0.71071506
vn 0.95785391 0.28714865 -0.0020447401
vn 0.33063754 0.51646471 0.78988004
vn -0.90072328 0.29325235 0.32038331
vn -0.65431684 0.4867397 -0.57872248
vn 0.48725852 0.10437331 -0.86696982
vn 0.14416943 0.98733485 -0.066103093

# Mesh 'Icosphere.002' with 20 faces
g Icosphere.002
usemtl Carne
f  1/1/1 2/2/2 3/3/3
f  2/2/2 1/1/1 4/4/4
f  1/1/1 3/3/3 5/5/5
f  1/1/1 5/5/5 6/6/6
f  1/1/1 6/6/6 4/4/4
f  2/7/2 4/8/4 7/9/7
f  3/10/3 2/11/2 8/12/8
f  5/13/5 3/14/3 9/15/9
f  6/16/6 5/13/5 10/17/10
f  4/4/4 6/6/6 11/18/11
f  2/7/2 7/9/7 8/19/8
f  3/10/3 8/12/8 9/20/9
f  5/13/5 9/15/9 10/17/10
f  6/21/6 10/22/10 11/23/11
f  4/8/4 11/24/11 7/9/7
f  8/25/8 7/26/7 12/27/12
f  9/28/9 8/25/8 12/27/12
f  10/22/10 9/28/9 12/27/12
f  11/23/11 10/22/10 12/27/12
f  7/26/7 11/23/11 12/27/12

